 http://www.imdb.com/title/tt1966604/

Plot:A documentary centered on a young Frenchman who convinces a grieving Texas family that he is their 16-year-old son who went missing for 3 years.
 


Director: 
Bart Layton
 
Stars:
 Adam O'Brian, Frédéric Bourdin and Carey Gibson

Genres:
 Documentary | Biography 



Format                                   : AVI
Format/Info                              : Audio Video Interleave
File size                                : 700 MiB
Duration                                 : 1h 38mn
Overall bit rate mode                    : Variable
Overall bit rate                         : 991 Kbps
Writing application                      : VirtualDubMod 1.5.4.1 (build 2178/release)
Writing library                          : VirtualDubMod build 2178/release

Video
ID                                       : 0
Format                                   : MPEG-4 Visual
Format profile                           : Advanced Simple@L5
Format settings, BVOP                    : 1
Format settings, QPel                    : No
Format settings, GMC                     : No warppoints
Format settings, Matrix                  : Custom
Codec ID                                 : XVID
Codec ID/Hint                            : XviD
Duration                                 : 1h 38mn
Bit rate                                 : 865 Kbps
Width                                    : 720 pixels
Height                                   : 320 pixels
Display aspect ratio                     : 2.25:1
Frame rate                               : 25.000 fps
Color space                              : YUV
Chroma subsampling                       : 4:2:0
Bit depth                                : 8 bits
Scan type                                : Progressive
Compression mode                         : Lossy
Bits/(Pixel*Frame)                       : 0.150
Stream size                              : 611 MiB (87%)
Writing library                          : XviD 64

Audio
ID                                       : 1
Format                                   : MPEG Audio
Format version                           : Version 1
Format profile                           : Layer 3
Mode                                     : Joint stereo
Mode extension                           : MS Stereo
Codec ID                                 : 55
Codec ID/Hint                            : MP3
Duration                                 : 1h 38mn
Bit rate mode                            : Variable
Bit rate                                 : 113 Kbps
Nominal bit rate                         : 128 Kbps
Channel(s)                               : 2 channels
Sampling rate                            : 48.0 KHz
Compression mode                         : Lossy
Stream size                              : 79.7 MiB (11%)
Alignment                                : Aligned on interleaves
Interleave, duration                     : 24 ms (0.60 video frame)
Interleave, preload duration             : 163 ms
Writing library                          : LAME3.98r
Encoding settings                        : -m j -V 4 -q 2 -lowpass 17 --abr 128
Language                                 : English

 
http://bayimg.com/AAGpaaAeg
 
http://bayimg.com/aAGpBaAeG
 
http://bayimg.com/aAgPCaaEG